<svg width="20" height="10" viewBox="0 0 20 10" fill="none" xmlns="http://www.w3.org/2000/svg">
<path fill-rule="evenodd" clip-rule="evenodd" d="M0.5 0H6.09283V1.27216H3.12328V1.9291H5.48423V3.22212H3.12328V4.78624H0.5V0ZM7.26814 0H11.0247L13.0603 4.78624H10.2272L9.99635 4.0876H8.244L8.01316 4.78624H5.24296L7.26814 0ZM9.57663 2.80502L9.10444 1.38686L8.64273 2.80502H9.57663ZM16.2293 0H13.2178V4.78624H15.5577V2.05422L17.5619 4.78624H20.5V0H18.16V2.62774L16.2293 0ZM3.12328 7.67466V10H0.5V5.20332H3.12328V7.24712L4.60282 5.20332H7.70879L5.76756 7.33054L7.75076 9.98958H4.65529L3.12328 7.67466ZM14.0152 5.20332H7.8347V10H14.0152V8.77998H10.521V8.17518H13.4066V6.94472H10.521V6.39206H14.0152V5.20332ZM14.3195 5.20332H20.4999V6.39206H17.0057V6.94472H19.8808V8.17518H17.0057V8.77998H20.4999V10H14.3195V5.20332Z" fill="white" fill-opacity="0.75"/>
</svg>
